HIERARCHY
ROOT Hips
{
    OFFSET 0.0 0.0 0.0
    CHANNELS 6 Xposition Yposition Zposition Zrotation Xrotation Yrotation
    JOINT LeftHipJoint
    {
        OFFSET 0.1 0.0 0.0
        CHANNELS 3 Zrotation Xrotation Yrotation
        JOINT LeftUpLeg
        {
            OFFSET 8.485575675964355 0.0 0.0
            CHANNELS 3 Zrotation Xrotation Yrotation
            JOINT LeftLeg
            {
                OFFSET 0.0 0.0 -33.372833251953125
                CHANNELS 3 Zrotation Xrotation Yrotation
                JOINT LeftFoot
                {
                    OFFSET 0.0 0.0 -38.59461975097656
                    CHANNELS 3 Zrotation Xrotation Yrotation
                    End Site
                    {
                        OFFSET 0.0 -0.1 0.0
                    }
                }
            }
        }
    }
    JOINT LowerBack
    {
        OFFSET 0.0 0.0 0.1
        CHANNELS 3 Zrotation Xrotation Yrotation
        JOINT Spine
        {
            OFFSET 0.0 0.0 20.347373962402344
            CHANNELS 3 Zrotation Xrotation Yrotation
            JOINT Spine1
            {
                OFFSET 0.0 0.0 23.142465591430664
                CHANNELS 3 Zrotation Xrotation Yrotation
                JOINT LeftShoulder
                {
                    OFFSET 0.1 0.0 0.0
                    CHANNELS 3 Zrotation Xrotation Yrotation
                    JOINT LeftArm
                    {
                        OFFSET 10.98111343383789 0.0 0.0
                        CHANNELS 3 Zrotation Xrotation Yrotation
                        JOINT LeftForeArm
                        {
                            OFFSET 20.966115951538086 0.0 0.0
                            CHANNELS 3 Zrotation Xrotation Yrotation
                            JOINT LeftHand
                            {
                                OFFSET 16.906768798828125 0.0 0.0
                                CHANNELS 3 Zrotation Xrotation Yrotation
                                End Site
                                {
                                    OFFSET 0.1 0.0 0.0
                                }
                            }
                        }
                    }
                }
                JOINT Neck
                {
                    OFFSET 0.0 0.0 0.1
                    CHANNELS 3 Zrotation Xrotation Yrotation
                    JOINT Neck1
                    {
                        OFFSET 0.0 0.0 10.729504585266113
                        CHANNELS 3 Zrotation Xrotation Yrotation
                        End Site
                        {
                            OFFSET 0.0 0.0 10.956161499023438
                        }
                    }
                }
                JOINT RightShoulder
                {
                    OFFSET -0.1 0.0 0.0
                    CHANNELS 3 Zrotation Xrotation Yrotation
                    JOINT RightArm
                    {
                        OFFSET -10.98111343383789 0.0 0.0
                        CHANNELS 3 Zrotation Xrotation Yrotation
                        JOINT RightForeArm
                        {
                            OFFSET -20.966115951538086 0.0 0.0
                            CHANNELS 3 Zrotation Xrotation Yrotation
                            JOINT RightHand
                            {
                                OFFSET -16.906768798828125 0.0 0.0
                                CHANNELS 3 Zrotation Xrotation Yrotation
                                End Site
                                {
                                    OFFSET -0.1 0.0 0.0
                                }
                            }
                        }
                    }
                }
            }
        }
    }
    JOINT RightHipJoint
    {
        OFFSET -0.1 0.0 0.0
        CHANNELS 3 Zrotation Xrotation Yrotation
        JOINT RightUpLeg
        {
            OFFSET -8.485575675964355 0.0 0.0
            CHANNELS 3 Zrotation Xrotation Yrotation
            JOINT RightLeg
            {
                OFFSET 0.0 0.0 -33.372833251953125
                CHANNELS 3 Zrotation Xrotation Yrotation
                JOINT RightFoot
                {
                    OFFSET 0.0 0.0 -38.59461975097656
                    CHANNELS 3 Zrotation Xrotation Yrotation
                    End Site
                    {
                        OFFSET 0.0 -0.1 0.0
                    }
                }
            }
        }
    }
}
MOTION
Frames: 8
Frame Time: 0.03333333333333333
8.23309164843522e-05 78.54535675048828 -0.0010045850649476051 -80.44519850252537 -42.32512111246411 -89.55956683509504 3.1805546814635168e-15 0.0 0.0 -3.5132908603610007 -22.55466385698717 -15.602961907994336 -4.579334737394993 34.95828480455032 4.919880559091302 5.517382872562698e-32 7.951386703658792e-16 -7.951386703658792e-15 3.1805546814635168e-15 0.0 0.0 1.299808051357621 8.725772727797686 1.236424182434703 -0.17386623984530325 2.8260838084623733e-06 -3.363755110107037e-06 -3.1805546814635164e-15 1.5902773407317582e-15 4.4139062980501586e-32 -26.42101887729866 -1.6646477330446225 57.25397191287527 -84.8933559013657 2.6098202198785804e-06 5.383581646031441e-07 0.0 0.0 0.0 -3.1805546814635164e-15 1.5902773407317582e-15 4.4139062980501586e-32 7.9930097406055145 2.3482541971791164 -3.1084969935928375 -3.1805546814635164e-15 1.5902773407317582e-15 4.4139062980501586e-32 12.402459147222032 -2.5673384866475337 -61.02568012697996 85.23901304397877 -3.380109752847339e-08 5.089885946474119e-06 0.0 0.0 0.0 3.1805546814635168e-15 0.0 0.0 -7.192178475368155 -40.210682929988785 -2.3847361497976545 8.117054672677146 42.77008546972298 -10.719092297333958 -3.1805546814635164e-15 -6.361109362927033e-15 1.590277340731758e-15
0.0001453146105632186 78.54554748535156 -0.001073090243153274 -80.2346732365674 -41.10210645998519 -90.39751006052428 3.1805546814635176e-15 -6.361109362927035e-15 1.7655625192200634e-31 -2.675557006497515 -17.695247464112406 -12.315572064833944 -2.590593587268605 35.81354271743356 -1.330392676848133 1.5902773407317582e-15 5.565970692561154e-15 2.3854160110976376e-15 3.1805546814635176e-15 -6.361109362927035e-15 1.7655625192200634e-31 1.3678001581218915 9.253263442377644 1.711135652894742 -1.0980511689951757 -9.79692001199983e-07 5.907137338797359e-07 -6.3611093629270335e-15 3.531125038440127e-31 -6.3611093629270335e-15 -18.579412083003152 -4.060935334415199 54.11164430897571 -93.24706713861704 2.2065169643605926e-06 2.2642420917495405e-06 -3.1805546814635168e-15 0.0 0.0 -6.3611093629270335e-15 3.531125038440127e-31 -6.3611093629270335e-15 8.683945662922596 3.37794868560667 -2.062147491742819 -6.3611093629270335e-15 3.531125038440127e-31 -6.3611093629270335e-15 13.247036093258176 -0.46692210675528445 -60.747965896689486 94.39543598972195 7.077785044068208e-07 3.869439790010819e-06 -1.5902773407317584e-15 0.0 0.0 3.1805546814635176e-15 -6.361109362927035e-15 1.7655625192200634e-31 -7.215452106299992 -40.54604704254884 -4.415024690130964 5.530729105391962 39.750542705100315 -11.17819359651303 1.590277340731758e-15 -6.3611093629270335e-15 -6.3611093629270335e-15
0.000245381030254066 78.5455551147461 -0.0009763381676748395 -80.5131903948348 -41.40839288461651 -91.17028693937556 4.4139062980501586e-32 1.5902773407317582e-15 -3.1805546814635164e-15 -2.0443306302921136 -14.0512818620849 -8.748114140687825 -0.306156586077451 37.66682341665737 -8.723691271050122 -3.1805546814635164e-15 6.361109362927033e-15 -3.975693351829394e-16 4.4139062980501586e-32 1.5902773407317582e-15 -3.1805546814635164e-15 1.4091369111031018 9.779633955153395 1.4190238385643898 -0.5437453301635099 -5.782495037735739e-06 1.1767061616087479e-06 3.1805546814635168e-15 -1.5902773407317584e-15 4.4139062980501586e-32 -8.04054764935737 -9.013536548259747 51.56405290167822 -93.80159285112558 1.6353713747675776e-06 -1.0935533514809018e-06 0.0 0.0 0.0 3.1805546814635168e-15 -1.5902773407317584e-15 4.4139062980501586e-32 6.766639051520142 3.0074642532198568 -0.7868438922997624 3.1805546814635168e-15 -1.5902773407317584e-15 4.4139062980501586e-32 9.741288482990429 -3.284006459837504 -59.21283089782409 100.31287671860439 4.3696084673493e-06 -8.988098380104907e-07 1.5902773407317584e-15 -3.1805546814635168e-15 4.4139062980501586e-32 4.4139062980501586e-32 1.5902773407317582e-15 -3.1805546814635164e-15 -6.734609153620427 -39.361954869522286 -2.716198296946356 5.577281331479495 35.23053670290423 -14.39195622417588 -3.1805546814635168e-15 0.0 0.0
0.00019494218577165157 78.54588317871094 -0.0010686526075005531 -80.97200839991459 -39.63848385768391 -91.94656156179185 6.3611093629270335e-15 -1.7655625192200634e-31 -3.1805546814635168e-15 -1.0670675851457094 -7.331878284551179 -3.4527790627269668 3.8957362323656026 38.81883843227332 -16.84511918142228 -4.373262687012335e-15 1.517280289954742e-32 -3.975693351829396e-16 6.3611093629270335e-15 -1.7655625192200634e-31 -3.1805546814635168e-15 1.4749946254707744 10.087297367633115 2.0774245018184057 1.1162086699939782 1.058322024662641e-06 8.371568283385387e-07 0.0 0.0 7.951386703658792e-15 0.49518229420023835 -16.797378002214394 49.21434759294213 -102.02672645853482 -6.067078447344332e-06 3.580695628652043e-06 1.5902773407317584e-15 0.0 0.0 0.0 0.0 7.951386703658792e-15 5.472312481627638 5.794983841092572 -0.03144187733051511 0.0 0.0 7.951386703658792e-15 8.042981786016265 -2.8558890312902685 -55.55483434481108 112.79637664014058 1.0866492916874268e-06 3.091865609575637e-07 -1.5902773407317584e-15 -1.5902773407317584e-15 -6.3611093629270335e-15 6.3611093629270335e-15 -1.7655625192200634e-31 -3.1805546814635168e-15 -6.431692782086869 -37.6859974529362 -1.0873082317620735 5.587723600220639 30.556100661376956 -16.993878740391516 4.770832022195275e-15 0.0 0.0
0.0004370001843199134 78.54610443115234 -0.0009037277777679265 -81.00202315592648 -39.3213449735237 -92.44923027857855 3.1805546814635164e-15 -6.361109362927033e-15 1.7655625192200634e-31 -0.635908455030069 -4.230844215329807 1.8111738071875485 8.480038534465043 39.0347857562111 -22.008450398797503 -1.987846675914698e-15 1.987846675914699e-16 -4.174478019420866e-15 3.1805546814635164e-15 -6.361109362927033e-15 1.7655625192200634e-31 1.558396110017993 10.317286934177408 3.891276454655714 1.1247089575786007 -2.1395050387273886e-06 -1.4957310640074289e-06 -3.1805546814635164e-15 4.4139062980501586e-32 -1.5902773407317582e-15 2.01723760179165 -21.763292172756874 46.58559404280785 -102.28602076123863 2.8164820912607904e-06 -2.44196458383377e-06 7.951386703658792e-16 -6.3611093629270335e-15 4.4139062980501586e-32 -3.1805546814635164e-15 4.4139062980501586e-32 -1.5902773407317582e-15 4.49332074370396 5.570466034136875 -3.049329882251787 -3.1805546814635164e-15 4.4139062980501586e-32 -1.5902773407317582e-15 7.598357975235877 -7.529565996768799 -53.37355400871032 118.13560429940371 9.746913166385305e-07 7.238751202755225e-07 1.5902773407317584e-15 1.5902773407317584e-15 -2.2069531490250793e-32 3.1805546814635164e-15 -6.361109362927033e-15 1.7655625192200634e-31 -6.421824586846645 -36.76486575371851 1.8910421301049778 7.057333226927996 28.898358905872644 -18.128729585498007 1.590277340731758e-15 6.3611093629270335e-15 6.3611093629270335e-15
0.0006542775663547218 78.54664611816406 -0.0009790004696696997 -81.72818949562021 -40.9995475507355 -93.9989930683128 0.0 6.361109362927033e-15 0.0 -0.06006952227878021 -0.3310462522086183 7.300132856014249 12.819903991472982 36.83330750400615 -32.02980855946898 1.391492673140289e-15 6.361109362927035e-15 -8.945310041616142e-16 0.0 6.361109362927033e-15 0.0 1.6159819282081995 9.846495046316804 6.107494921699465 1.0305263724736913 -6.327676794282743e-07 -2.1366287236251536e-06 -6.361109362927033e-15 1.7655625192200634e-31 -3.1805546814635164e-15 5.242562915244405 -27.021539818423978 45.55229409878158 -105.93820434980502 -4.031580476867885e-06 -1.3362985755959964e-06 -3.975693351829396e-16 6.3611093629270335e-15 2.2069531490250793e-32 -6.361109362927033e-15 1.7655625192200634e-31 -3.1805546814635164e-15 3.104976349635127 7.767190027701091 -5.741055720403595 -6.361109362927033e-15 1.7655625192200634e-31 -3.1805546814635164e-15 6.15392100235475 -11.294572625017777 -51.94280361579932 125.47415932750062 -8.087689082164678e-07 2.788895093851615e-06 3.975693351829396e-15 3.1805546814635168e-15 -1.1034765745125397e-31 0.0 6.361109362927033e-15 0.0 -7.460003498624801 -38.56800191448241 3.812557672495744 9.295189782396626 29.909308009236085 -17.586932153898225 1.5902773407317584e-15 6.3611093629270335e-15 -3.1805546814635168e-15
0.0008641069289296865 78.54716491699219 -0.0010812632972374558 -82.19425917465506 -43.31369799202273 -94.4757716925429 0.0 0.0 3.1805546814635168e-15 -0.8243552372587782 -5.127241587133368 11.63429990764166 17.58377914137201 38.647046535559795 -40.309214549292896 -1.5902773407317584e-15 -1.9878466759146975e-16 -3.578124016646457e-15 0.0 0.0 3.1805546814635168e-15 1.6299225484026878 10.117770282744658 6.853858996506321 -0.9505979583287449 1.8030680472394405e-06 -1.0753878892034314e-06 -3.1805546814635176e-15 4.770832022195277e-15 4.770832022195277e-15 4.530300203760199 -30.595610015228285 44.21718105584333 -109.96219044612019 -2.0197976102089657e-06 3.807355160515047e-06 0.0 -6.361109362927033e-15 0.0 -3.1805546814635176e-15 4.770832022195277e-15 4.770832022195277e-15 2.1607559177677276 9.454019113922493 -6.516005222671084 -3.1805546814635176e-15 4.770832022195277e-15 4.770832022195277e-15 8.170417555400986 -20.41659655811758 -51.90912064599831 124.37430185049524 3.769163831009132e-06 -1.496362525981607e-06 -2.3854160110976376e-15 3.1805546814635168e-15 6.3611093629270335e-15 0.0 0.0 3.1805546814635168e-15 -8.271285540721763 -41.99513267508796 2.591364960118922 10.435536449591206 34.31735630935721 -15.10182002722395 -7.951386703658792e-15 6.3611093629270335e-15 4.413906298050159e-31
0.001536051044240594 78.54782104492188 -0.0011641870951279998 -82.77560654517819 -46.188080352818105 -96.29270037062919 -6.361109362927035e-15 8.827812596100317e-32 -1.5902773407317588e-15 1.232291400054364 8.733498920298963 32.59688491417639 19.459041381699887 21.147805703304893 -51.63518457915228 1.1927080055488188e-15 9.939233379573495e-17 4.67143968839954e-15 -6.361109362927035e-15 8.827812596100317e-32 -1.5902773407317588e-15 1.454977223017782 10.143999489307937 7.712585299521499 -1.9623444533956855 1.9441417605901325e-06 1.0283154832365369e-07 -3.1805546814635168e-15 6.3611093629270335e-15 -1.5902773407317582e-15 3.3301224610886093 -34.77474534077178 43.086945599454026 -115.35157512085215 2.179144467283276e-07 3.0313851923391435e-06 1.5902773407317584e-15 6.3611093629270335e-15 -8.827812596100317e-32 -3.1805546814635168e-15 6.3611093629270335e-15 -1.5902773407317582e-15 -4.614874780979314 8.440073080063167 -3.950288403572413 -3.1805546814635168e-15 6.3611093629270335e-15 -1.5902773407317582e-15 9.813816961080896 -25.86906019609061 -52.79070650237738 122.80678846279217 4.225610351676302e-07 -1.6879040016496582e-06 7.951386703658792e-16 0.0 0.0 -6.361109362927035e-15 8.827812596100317e-32 -1.5902773407317588e-15 -8.979385841153599 -47.63526765296378 3.25093568679079 13.119542020594071 39.610123460338556 -14.359415433372531 0.0 -6.3611093629270335e-15 0.0
